<svg xmlns="http://www.w3.org/2000/svg" xmlns:xlink="http://www.w3.org/1999/xlink" id="Capa_1" x="0px" y="0px" width="30px" height="30px" viewBox="0 0 30 30" style="enable-background:new 0 0 30 30;" xml:space="preserve">
<g>
	<g>
		<path d="M26.1,8.536c0,0.582-0.472,1.054-1.054,1.054H10.849c-0.582,0-1.054-0.472-1.054-1.054l0,0    c0-0.582,0.472-1.054,1.054-1.054h14.197C25.628,7.483,26.1,7.954,26.1,8.536L26.1,8.536z"></path>
		<g>
			<g>
				<polygon points="21.887,21.487 7.152,21.487 2.218,23.462 2.218,11.062 4.085,11.062 4.085,8.844 0,8.844 0,23.706 0,26.737       7.579,23.706 24.105,23.706 24.105,21.333 21.887,20.446     "></polygon>
				<path d="M5.895,3.263v3.771v2.218v8.874h16.527l1.275,0.51l2.219,0.887L30,21.157v-3.031V3.263H5.895z M27.782,17.881      l-1.867-0.747l-2.22-0.887l-0.848-0.34H8.113V9.253V7.034V5.482h19.669V17.881z"></path>
			</g>
			<path d="M19.334,12.644c0,0.582-0.275,1.054-0.617,1.054h-8.306c-0.34,0-0.616-0.472-0.616-1.054l0,0     c0-0.582,0.276-1.054,0.616-1.054h8.306C19.059,11.59,19.334,12.062,19.334,12.644L19.334,12.644z"></path>
		</g>
	</g>
</g>
<g>
</g>
<g>
</g>
<g>
</g>
<g>
</g>
<g>
</g>
<g>
</g>
<g>
</g>
<g>
</g>
<g>
</g>
<g>
</g>
<g>
</g>
<g>
</g>
<g>
</g>
<g>
</g>
<g>
</g>
</svg>