<svg xmlns="http://www.w3.org/2000/svg" xmlns:xlink="http://www.w3.org/1999/xlink" id="Capa_1" x="0px" y="0px" width="30px" height="30px" viewBox="0 0 30 30" style="enable-background:new 0 0 30 30;" xml:space="preserve">
<g>
	<g>
		<path d="M28.812,21.132l-2.108-9.261c0-0.52-0.42-0.94-0.938-0.94l-1.539-0.141v9.638c0,0.572-0.465,1.035-1.037,1.035H9.432    v1.096c0,0.52,0.421,0.94,0.94,0.94h14.903L30,25.504L28.812,21.132z"></path>
		<path d="M21.623,4.496L4.666,6.051c-0.571,0-1.035,0.463-1.035,1.035L1.309,17.288L0,22.104l5.204-2.209h2.66h13.758    c0.571,0,1.035-0.463,1.035-1.034V9.222V5.531C22.658,4.959,22.193,4.496,21.623,4.496z"></path>
	</g>
</g>
<g>
</g>
<g>
</g>
<g>
</g>
<g>
</g>
<g>
</g>
<g>
</g>
<g>
</g>
<g>
</g>
<g>
</g>
<g>
</g>
<g>
</g>
<g>
</g>
<g>
</g>
<g>
</g>
<g>
</g>
</svg>