<svg xmlns="http://www.w3.org/2000/svg" xmlns:xlink="http://www.w3.org/1999/xlink" id="Capa_1" x="0px" y="0px" width="30px" height="30px" viewBox="0 0 30 30" style="enable-background:new 0 0 30 30;" xml:space="preserve">
<g>
	<g>
		<g>
			<path d="M28.023,23.309C29.258,22.154,30,20.675,30,19.061c0-3.688-3.877-6.679-8.659-6.679s-8.66,2.99-8.66,6.679     c0,3.688,3.877,6.681,8.66,6.681c1.511,0,2.931-0.3,4.166-0.824l3.153,1.608L28.023,23.309z M15.975,22.673     c-1.292-0.997-2.003-2.279-2.003-3.612c0-1.332,0.711-2.615,2.003-3.611c1.418-1.093,3.322-1.695,5.366-1.695     c2.043,0,3.949,0.603,5.366,1.695c1.292,0.996,2.003,2.279,2.003,3.611c0,1.333-0.711,2.615-2.003,3.612     c-1.417,1.093-3.323,1.693-5.366,1.693C19.297,24.368,17.393,23.766,15.975,22.673z"></path>
			<g>
				<circle cx="18.27" cy="19.081" r="0.948"></circle>
				<circle cx="21.34" cy="19.081" r="0.948"></circle>
				<circle cx="24.413" cy="19.081" r="0.948"></circle>
			</g>
		</g>
		<g>
			<path d="M5.268,19.437c-2.066-1.594-3.205-3.645-3.205-5.776c0-2.131,1.138-4.183,3.205-5.776     c2.267-1.748,5.315-2.711,8.583-2.711c3.269,0,6.316,0.963,8.583,2.711c1.564,1.207,2.598,2.676,3.006,4.243     c0.787,0.197,1.533,0.463,2.229,0.789c-0.496-5.553-6.492-9.939-13.817-9.939C6.201,2.978,0,7.761,0,13.661     c0,2.581,1.187,4.948,3.163,6.795l-2.691,6.566l6.715-3.995c1.774,0.752,3.786,1.214,5.926,1.3     c-0.576-0.705-1.018-1.48-1.296-2.309C9.331,21.704,7.056,20.816,5.268,19.437z"></path>
		</g>
	</g>
</g>
<g>
</g>
<g>
</g>
<g>
</g>
<g>
</g>
<g>
</g>
<g>
</g>
<g>
</g>
<g>
</g>
<g>
</g>
<g>
</g>
<g>
</g>
<g>
</g>
<g>
</g>
<g>
</g>
<g>
</g>
</svg>