<svg xmlns="http://www.w3.org/2000/svg" xmlns:xlink="http://www.w3.org/1999/xlink" id="Capa_1" x="0px" y="0px" width="30px" height="30px" viewBox="0 0 30 30" style="enable-background:new 0 0 30 30;" xml:space="preserve">
<g>
	<g>
		<path d="M24.361,22.716C27.798,20.751,30,17.727,30,14.334c0-5.925-6.716-10.729-15-10.729S0,8.409,0,14.334    c0,5.926,6.716,10.729,15,10.729c1.702,0,3.338-0.204,4.863-0.577c5.158,3.801,8.725,0.752,8.725,0.752    C25.98,24.897,24.842,23.777,24.361,22.716z M5.793,19.962c-2.184-1.562-3.387-3.561-3.387-5.628s1.203-4.067,3.387-5.629    C8.221,6.967,11.491,6.011,15,6.011s6.779,0.956,9.207,2.693c2.184,1.562,3.387,3.562,3.387,5.629    c0,2.068-1.203,4.067-3.387,5.629c-2.428,1.736-5.698,2.693-9.207,2.693S8.221,21.701,5.793,19.962z"></path>
		<g>
			<path d="M9.017,12.151c-1.206,0-2.184,0.978-2.184,2.183c0,1.206,0.978,2.184,2.184,2.184S11.2,15.54,11.2,14.334     S10.222,12.151,9.017,12.151z M9.017,15.547c-0.669,0-1.213-0.544-1.213-1.213s0.544-1.213,1.213-1.213s1.213,0.544,1.213,1.213     S9.686,15.547,9.017,15.547z"></path>
			<path d="M15,12.151c-1.206,0-2.183,0.978-2.183,2.183c0,1.206,0.977,2.184,2.183,2.184s2.184-0.978,2.184-2.184     S16.206,12.151,15,12.151z M15,15.547c-0.669,0-1.213-0.544-1.213-1.213s0.544-1.213,1.213-1.213s1.213,0.544,1.213,1.213     S15.669,15.547,15,15.547z"></path>
			<path d="M20.982,12.151c-1.205,0-2.183,0.978-2.183,2.183c0,1.206,0.978,2.184,2.183,2.184c1.207,0,2.184-0.978,2.184-2.184     C23.167,13.128,22.189,12.151,20.982,12.151z M20.982,15.547c-0.668,0-1.213-0.544-1.213-1.213s0.545-1.213,1.213-1.213     c0.67,0,1.213,0.544,1.213,1.213S21.652,15.547,20.982,15.547z"></path>
		</g>
	</g>
</g>
<g>
</g>
<g>
</g>
<g>
</g>
<g>
</g>
<g>
</g>
<g>
</g>
<g>
</g>
<g>
</g>
<g>
</g>
<g>
</g>
<g>
</g>
<g>
</g>
<g>
</g>
<g>
</g>
<g>
</g>
</svg>