<svg xmlns="http://www.w3.org/2000/svg" xmlns:xlink="http://www.w3.org/1999/xlink" id="Capa_1" x="0px" y="0px" width="30px" height="30px" viewBox="0 0 30 30" style="enable-background:new 0 0 30 30;" xml:space="preserve">
<g>
	<path d="M24.361,22.716C27.798,20.751,30,17.727,30,14.333c0-5.925-6.716-10.729-15-10.729S0,8.409,0,14.333   c0,5.925,6.716,10.729,15,10.729c1.702,0,3.338-0.203,4.863-0.577c5.158,3.803,8.725,0.752,8.725,0.752   C25.98,24.896,24.842,23.776,24.361,22.716z M5.793,19.964c-2.184-1.563-3.387-3.562-3.387-5.63s1.203-4.067,3.387-5.629   C8.221,6.966,11.491,6.011,15,6.011s6.779,0.956,9.207,2.693c2.184,1.562,3.387,3.562,3.387,5.629c0,2.068-1.203,4.067-3.387,5.629   c-2.428,1.737-5.698,2.693-9.207,2.693S8.221,21.7,5.793,19.964z"></path>
</g>
<g>
</g>
<g>
</g>
<g>
</g>
<g>
</g>
<g>
</g>
<g>
</g>
<g>
</g>
<g>
</g>
<g>
</g>
<g>
</g>
<g>
</g>
<g>
</g>
<g>
</g>
<g>
</g>
<g>
</g>
</svg>